<?xml version="1.0" encoding="utf-8"?>
<svg version="1.1" id="Layer_1" xmlns="http://www.w3.org/2000/svg" xmlns:xlink="http://www.w3.org/1999/xlink" x="0px" y="0px"
	 width="32px" height="32px" viewBox="0 0 1146.1 1632.6" style="enable-background:new 0 0 1146.1 1632.6;">

<g id="XMLID_2096_" transform="rotate(45 573.05 816.3)">
	<path id="XMLID_2098_" fill="#D4A5A5" d="M429.1,158c-0.4,0.9-0.7,2-1,3c0,0,5.1-80.7,75-161c-50.5,31.4-112.7,76.3-168.3,132
		C234.5,232.5,178.7,370,187.2,511.7c1.7,27.5,5.7,56.2,13.2,86.2c-1.7-1.6-39.2-60.1-54-168.4c0,0,0,0.1-0.1,0.3
		c-3.1,8.1-133.6,221.8-31.9,347.7c-0.4-0.1-38.1-23.1-71.1-90.5l-0.2,0.5c1.2,88.2,15.6,139.9,116,237.9
		c-9.6-7.9-100.6-60.8-152.5-151.3c0,0-45.7,186.6,102.2,294.6c-3.8-1.1-48.3-14.9-95-46.5c28.5,113.9,114.5,192.1,219.7,236.5
		C259.8,843.2,361.7,534.1,416.4,410c60.2-136.6,164-222.2,164-222.2C475.1,283.5,385.8,486,331.7,768.1
		c-19.1,99.4-94,365-74.8,864.3c0,0,32.8-99.9,35.8-130c2.5-24.7-12.8-153,20.9-236c56.1-4.8,138.3-28.7,215.7-113.8
		c-74.3,39.4-118,13.9-120.6,12.3c-0.1-0.1-0.2-0.1-0.2-0.1c36.9,2.1,59.7-20.3,129-51.7c68.2-30.9,117.5-109.7,119-112.2
		c-77.9,66.4-189.9,52.8-189.9,52.8C610.8,1038.2,619,906.5,619,906.5c-47.9,64.7-128.6,47.6-132.6,47.8
		c170.5-44.7,166.3-288.7,166.3-288.7c-17.3,14.2-41.6,23-61.8,28.3c-20.2,5.4-36.3,7.1-37,7.3c35.2-15.7,56.3-52.4,52-90.8
		c-4-35.9-61.5-253.5,106.6-404.8c0,0-66.5,82.8-50.2,145.9c32.1-95,249.9-251.3,369.1-137.9C948.4,8.9,550.9-95.5,429.1,158z"/>
	<path id="XMLID_2097_" fill="#D4A5A5" d="M317.4,1632.4c0,0,4.5-0.5,12.9-1.7c8.4-1.2,20.6-3.2,36.1-6.3c15.4-3,34-7.4,55.1-13.2
		c10.5-3,21.6-6.3,33.2-10.2c11.6-3.9,23.6-8.3,35.9-13.2c12.3-5,25-10.6,37.8-16.9c12.8-6.3,25.7-13.4,38.6-21.3
		c25.6-15.9,51-35,73.4-58.3c11.3-11.6,21.6-24.3,31.1-37.8c2.3-3.4,4.7-6.8,6.9-10.3l1.7-2.6l0.8-1.3l0.2-0.3c0,0,0.3-0.4,0.1-0.1
		l0.4-0.7l3.3-5.7c1.2-1.9,2.1-3.7,3.1-5.5c1-1.8,2-3.5,2.9-5.4c1.9-3.8,3.9-7.5,5.7-11.4c14.9-30.6,25.7-64.2,35.9-98.4
		c5-17.3,10.1-34.6,15.1-51.8c5.1-17.3,10.3-34.7,16.3-51.9c6-17.1,12.4-34.1,20.1-50.5c7.6-16.4,16.1-32.3,26-47.2
		c4.9-7.5,10.2-14.5,15.7-21.5c5.6-6.8,11.3-13.4,17.4-19.5c12.1-12.3,25.2-23.1,38.8-32.2c27.3-18.2,55.9-29.9,82.8-37.3
		c26.9-7.5,52-11.1,74.3-13.1c22.2-1.9,41.6-2,57.5-1.7c4,0.1,7.7,0.2,11.3,0.2c3.5,0.1,6.8,0.4,9.9,0.5c6.2,0.3,11.4,0.6,15.6,1
		c8.5,0.7,13,1.1,13,1.1s-4.5,0.3-13,1c-4.2,0.2-9.4,0.7-15.5,1.3c-3.1,0.3-6.3,0.6-9.8,0.9c-3.5,0.4-7.2,0.7-11.1,1.2
		c-15.6,1.7-34.6,4.2-55.9,8.3c-10.7,2.1-22,4.5-33.6,7.7c-11.7,3-23.8,6.8-36.2,11.4c-12.4,4.5-24.9,9.9-37.3,16.4
		c-12.4,6.5-24.7,14.1-36.3,22.9c-11.8,8.8-22.8,19-33,30.4c-5.2,5.6-10,11.7-14.7,18c-4.6,6.4-9.1,12.9-13.2,19.8
		c-16.8,27.3-29.4,58.7-40.3,91.7c-5.3,16.5-10.4,33.5-15.4,50.7c-4.9,17.2-9.8,34.6-15.1,52.1c-10.5,34.9-22.5,70.1-39.4,103.2
		c-2.1,4.1-4.4,8.2-6.6,12.3c-1.1,2-2.4,4.1-3.6,6.1c-1.2,2-2.4,4.2-3.6,5.9l-3.5,5.6l-1.1,1.6l-1,1.4l-1.9,2.9
		c-2.5,3.9-5.3,7.5-7.9,11.3c-11,14.7-23,28.2-35.8,40.4c-12.7,12.3-26.3,23.2-40,33c-13.7,9.8-27.9,18.3-41.9,25.9
		c-28.2,15.1-56.2,26.2-82.4,34.4c-26.3,8.3-50.9,13.9-72.7,17.7c-21.9,4-41.1,5.9-57,7.3c-15.8,1.3-28.3,1.6-36.8,1.7
		C321.9,1632.6,317.4,1632.4,317.4,1632.4z"/>
</g>
</svg>